<svg xmlns="http://www.w3.org/2000/svg" width="1600" height="900" viewBox="0 0 1600 900">
  <defs>
    <linearGradient id="g" x1="0" x2="1" y1="0" y2="1">
      <stop stop-color="#1f3b73" offset="0"/>
      <stop stop-color="#6d3cb8" offset="0.45"/>
      <stop stop-color="#f1b24a" offset="1"/>
    </linearGradient>
    <radialGradient id="r" cx="75%" cy="25%" r="70%"><stop stop-color="#fff" stop-opacity=".42"/><stop offset="1" stop-color="#fff" stop-opacity="0"/></radialGradient>
  </defs>
  <rect width="1600" height="900" fill="url(#g)"/>
  <rect width="1600" height="900" fill="url(#r)"/>
  <path d="M0 690C240 590 420 750 640 650C880 540 1020 660 1210 560C1380 470 1500 510 1600 445V900H0Z" fill="#0b1020" opacity=".25"/>
  <g opacity=".18" fill="#fff">
    <circle cx="195" cy="655" r="45"/><rect x="175" y="700" width="40" height="120" rx="20"/>
    <circle cx="300" cy="640" r="38"/><rect x="282" y="675" width="36" height="115" rx="18"/>
    <circle cx="405" cy="660" r="42"/><rect x="386" y="700" width="38" height="118" rx="19"/>
    <circle cx="1180" cy="645" r="46"/><rect x="1157" y="688" width="46" height="128" rx="23"/>
    <circle cx="1285" cy="662" r="40"/><rect x="1266" y="700" width="38" height="120" rx="19"/>
  </g>
  <text x="120" y="285" font-family="Arial, sans-serif" font-size="86" font-weight="800" fill="#fff">Welcome Home</text>
  <text x="124" y="360" font-family="Arial, sans-serif" font-size="34" fill="#fff" opacity=".9">Worship. Prayer. Mission. Community.</text>
</svg>
